<svg xmlns="http://www.w3.org/2000/svg" viewBox="0 0 549 117"><defs><style>.cls-1{fill:#5ed529;}</style></defs><title>Asset 2</title><g id="Layer_2" data-name="Layer 2"><g id="Layer_1-2" data-name="Layer 1"><path d="M153,117H112.5a4.47,4.47,0,0,1-3.18-1.32l-13.5-13.5A4.47,4.47,0,0,1,94.5,99V4.5a4.5,4.5,0,0,1,9,0V97.14L114.36,108h36.78L162,97.14V4.5a4.5,4.5,0,0,1,9,0V99a4.47,4.47,0,0,1-1.32,3.18l-13.5,13.5A4.47,4.47,0,0,1,153,117Z"/><path d="M355.5,117H288a4.49,4.49,0,0,1-4.5-4.5V4.5a4.5,4.5,0,0,1,9,0V108h63a4.5,4.5,0,0,1,0,9Z"/><path d="M450,117a4.5,4.5,0,0,1-3.74-2L420.59,76.5h-8.68L386.24,115a4.5,4.5,0,0,1-8.24-2.5v-81a4.5,4.5,0,0,1,9,0V97.64L405.76,69.5a4.49,4.49,0,0,1,3.74-2H423a4.49,4.49,0,0,1,3.74,2L445.5,97.64V33.36L421.14,9H382.5a4.5,4.5,0,0,1,0-9H423a4.47,4.47,0,0,1,3.18,1.32l27,27a4.47,4.47,0,0,1,1.32,3.18v81A4.49,4.49,0,0,1,450,117Z"/><path d="M234,117H193.5a4.49,4.49,0,0,1-4.5-4.5v-81a4.5,4.5,0,0,1,9,0V108h34.14l22.5-22.5L230.82,61.68a4.49,4.49,0,0,1,0-6.36L254.64,31.5,232.14,9H193.5a4.5,4.5,0,0,1,0-9H234a4.47,4.47,0,0,1,3.18,1.32l27,27a4.49,4.49,0,0,1,0,6.36L240.36,58.5l23.82,23.82a4.49,4.49,0,0,1,0,6.36l-27,27A4.47,4.47,0,0,1,234,117Z"/><path d="M517.5,117H477a4.49,4.49,0,0,1-4.5-4.5v-81a4.5,4.5,0,0,1,9,0V108h34.14l22.5-22.5L514.32,61.68a4.49,4.49,0,0,1,0-6.36L538.14,31.5,515.64,9H477a4.5,4.5,0,0,1,0-9h40.5a4.47,4.47,0,0,1,3.18,1.32l27,27a4.49,4.49,0,0,1,0,6.36L523.86,58.5l23.82,23.82a4.49,4.49,0,0,1,0,6.36l-27,27A4.47,4.47,0,0,1,517.5,117Z"/><path d="M45,117H4.5A4.49,4.49,0,0,1,0,112.5v-81a4.5,4.5,0,0,1,9,0V108H43.14L67.5,83.64V33.36L43.14,9H4.5a4.5,4.5,0,0,1,0-9H45a4.47,4.47,0,0,1,3.18,1.32l27,27A4.47,4.47,0,0,1,76.5,31.5v54a4.47,4.47,0,0,1-1.32,3.18l-27,27A4.47,4.47,0,0,1,45,117Z"/><path class="cls-1" d="M355.5,114.5a2.12,2.12,0,0,1-.49-.06,2,2,0,0,1-1.45-2.42l27-108a2,2,0,1,1,3.88,1l-27,108A2,2,0,0,1,355.5,114.5Z"/><path class="cls-1" d="M382.5,33.5a2,2,0,0,1-.55-3.92l94.5-27a2,2,0,1,1,1.1,3.84l-94.5,27A1.75,1.75,0,0,1,382.5,33.5Z"/><path class="cls-1" d="M193.5,6.5h-27a2,2,0,0,1,0-4h27a2,2,0,0,1,0,4Z"/><path class="cls-1" d="M193.5,33.5a2,2,0,0,1-.55-3.92l94.5-27a2,2,0,1,1,1.1,3.84l-94.5,27A1.75,1.75,0,0,1,193.5,33.5Z"/><path class="cls-1" d="M4.5,33.5A2,2,0,0,1,4,29.58l94.5-27a2,2,0,0,1,1.1,3.84l-94.5,27A1.75,1.75,0,0,1,4.5,33.5Z"/></g></g></svg>